<svg width="1946" height="1946" viewBox="0 0 1946 1946" fill="none" xmlns="http://www.w3.org/2000/svg">
<circle cx="973" cy="973" r="973" fill="#F2F9F2"/>
<path d="M662.51 355.763C675.215 364.048 687.753 372.679 699.402 382.407C701.445 384.085 701.445 384.085 703.529 385.797C705.253 387.293 705.253 387.293 707.012 388.82C710.704 390.955 710.704 390.955 715.066 389.226C716.848 388.338 718.63 387.449 720.466 386.534C722.719 385.478 724.972 384.423 727.293 383.335C728.582 382.73 729.872 382.124 731.201 381.5C756.325 369.868 782.451 361.442 808.831 353.151C810.481 352.622 812.132 352.092 813.833 351.546C840.41 343.094 867.614 338.992 895.232 335.478C897.998 335.125 897.998 335.125 900.82 334.764C968.185 326.593 1038.6 329.818 1104.83 344.326C1108.99 345.236 1113.17 346.085 1117.35 346.923C1153.8 354.539 1189.74 367.158 1223.42 382.952C1224.65 383.525 1225.88 384.099 1227.14 384.69C1229.96 386.03 1232.76 387.405 1235.56 388.799C1244.31 393.099 1244.31 393.099 1253.81 394.404C1260.49 391.59 1266.65 388.035 1272.87 384.325C1287.43 375.884 1302.28 368.93 1317.81 362.492C1321 361.152 1324.16 359.741 1327.31 358.321C1365.44 341.41 1418.51 326.546 1459.79 338.547C1476.1 344.879 1486.4 354.911 1494.23 370.456C1513.12 413.465 1497.9 470.542 1482.37 512.208C1472.28 536.472 1460.61 560.201 1445.89 582.01C1442.79 587.351 1441.32 590.454 1441.13 596.646C1443.14 601.865 1445.28 606.636 1447.76 611.619C1463.35 644.813 1475.12 680.106 1480.4 716.429C1481.13 720.236 1481.86 724.041 1482.61 727.843C1486.39 749.248 1486.66 770.581 1486.66 792.253C1486.66 797.264 1486.7 802.273 1486.74 807.283C1486.81 827.738 1485.48 847.404 1482.37 867.631C1482.17 868.94 1481.97 870.248 1481.77 871.596C1473.76 924.442 1452.33 968.161 1415.6 1007.05C1414.3 1008.48 1413 1009.91 1411.66 1011.38C1368.96 1056.51 1308.07 1082.76 1248.69 1097.38C1247.08 1097.79 1245.46 1098.19 1243.8 1098.61C1242.82 1098.85 1241.84 1099.09 1240.84 1099.34C1240.08 1106.77 1240.31 1110.3 1244.37 1116.69C1246 1118.62 1247.63 1120.55 1249.31 1122.54C1261.53 1137.57 1271.83 1153.62 1282.07 1170.04C1283.27 1171.94 1283.27 1171.94 1284.49 1173.89C1316.76 1225.54 1337.86 1281.48 1350.8 1340.87C1351.29 1343.11 1351.78 1345.34 1352.29 1347.64C1363.85 1407.41 1345.96 1473.41 1312.76 1523.37C1270.17 1581.65 1205.18 1620.37 1134.01 1632.29C1091.43 1637.6 1050.54 1633.13 1015.26 1607.2C985.359 1582.22 970.482 1549.22 964.988 1511.11C964.122 1484.58 972.425 1458.23 990.347 1438.69C1010.9 1419.18 1035.89 1410.79 1063.83 1410.84C1093.78 1411.68 1118.37 1427.93 1138.73 1448.88C1143.38 1454.62 1147.9 1460.4 1152.26 1466.37C1156.07 1470.97 1156.07 1470.97 1161.7 1471.2C1166.14 1470.94 1166.14 1470.94 1168.18 1468.51C1169.51 1454.15 1162.36 1444.6 1154.44 1433.17C1144.81 1421.65 1133.06 1412.61 1121.05 1403.71C1127.26 1396.87 1133.87 1391.62 1141.43 1386.28C1155.99 1375.83 1172.4 1362.94 1177.07 1344.68C1177.73 1340.54 1177.73 1340.54 1178 1334.98C1171.01 1334.35 1167.35 1334.21 1161.46 1338.23C1159.95 1339.71 1158.44 1341.19 1156.89 1342.72C1155.19 1344.33 1153.49 1345.95 1151.74 1347.62C1150.03 1349.28 1148.33 1350.94 1146.58 1352.66C1108.13 1389.65 1108.13 1389.65 1090.38 1390.1C1088.23 1390.05 1086.08 1390 1083.87 1389.95C1081.5 1389.92 1079.13 1389.88 1076.69 1389.85C1071.72 1389.77 1066.76 1389.66 1061.79 1389.54C1046.41 1389.37 1033.54 1391.11 1018.94 1395.86C1002.22 1400.09 988.686 1393.74 973.778 1386.04C973.778 1384.74 973.778 1383.45 973.778 1382.11C972.591 1381.62 971.404 1381.13 970.181 1380.62C965.28 1377.82 963.524 1375.39 960.646 1370.57C959.829 1369.24 959.011 1367.91 958.169 1366.54C951.094 1352.6 952.748 1335.91 957.087 1321.36C969.408 1287.94 997.529 1261.86 1024.96 1240.36C1031.67 1234.75 1033.12 1229.59 1034.65 1221.09C1019.71 1219.43 1011.15 1223.93 999.306 1232.87C990.37 1240.28 982.016 1248.27 973.778 1256.44C971.303 1258.87 971.303 1258.87 968.777 1261.36C947.463 1283.63 932.525 1312.02 931.682 1343.21C932.413 1364.48 938.569 1381.87 953.551 1397.34C960.966 1403.99 968.927 1408.87 977.706 1413.53C976.532 1420.38 974.002 1423.92 969.483 1429.12C953.414 1449.15 946.156 1472.7 944.324 1497.97C944.194 1499.37 944.065 1500.77 943.932 1502.21C942.398 1533.06 953.543 1565.73 973.771 1588.85C975.742 1592.22 975.742 1592.22 975.075 1596.58C974.647 1597.73 974.219 1598.89 973.778 1600.08C962.581 1601.99 951.744 1602.35 940.396 1602.29C938.563 1602.28 936.73 1602.27 934.841 1602.26C883.235 1601.81 832.032 1592.92 783.28 1575.77C776.456 1573.64 770.605 1572.44 763.666 1574.55C759.152 1578.03 755.21 1581.89 751.125 1585.86C728.591 1605.17 700.267 1609.92 671.471 1608.3C637.181 1605.18 606.645 1586.6 581.046 1564.73C579.722 1563.61 578.398 1562.48 577.034 1561.33C547.964 1534.45 526.033 1489.27 523.302 1449.8C522.462 1426.98 525.136 1407.49 540.292 1389.71C550.946 1378.36 565.562 1369.2 581.345 1367.83C618.397 1366.83 646.893 1386.82 673.338 1411.57C683.612 1422.74 692.388 1434.53 699.878 1447.73C702.676 1451.39 702.676 1451.39 707.917 1451.43C712.513 1451.34 712.513 1451.34 714.575 1448.88C714.358 1440.8 713.404 1433.19 710.402 1425.68C708.367 1420.59 709.125 1418.64 710.648 1413.53C712.688 1413.22 714.728 1412.91 716.83 1412.59C741.621 1408.55 763.223 1401.92 779.138 1381.24C796.009 1356.48 798.342 1331.02 792.999 1301.85C788.523 1282.98 781.099 1260.91 767.594 1246.62C762.434 1245.63 762.434 1245.63 757.775 1246.62C755.13 1248.87 755.13 1248.87 754.953 1254.84C755.022 1264.57 758.975 1272.26 762.962 1280.99C773.164 1303.71 777.837 1328.63 769.557 1352.66C761.887 1368.19 751.356 1378.03 736.175 1386.04C734.387 1387.07 734.387 1387.07 732.562 1388.12C716.905 1394.94 699.907 1392.31 684.537 1386.34C681.909 1385.22 681.909 1385.22 679.229 1384.07C677.842 1383.55 676.455 1383.03 675.025 1382.49C652.338 1372.85 635.801 1351.41 624.614 1330.2C606.88 1276.99 629.206 1221.09 652.865 1173.47C662.185 1155.49 673.176 1138.72 685.895 1122.95C689.363 1118.58 692.615 1114.11 695.797 1109.53C697.252 1107.45 697.252 1107.45 698.735 1105.32C701.435 1100.9 701.435 1100.9 700.829 1093.45C698.499 1092.94 698.499 1092.94 696.121 1092.42C659.157 1084.12 622.791 1073.25 588.9 1056.14C587.413 1055.4 585.925 1054.66 584.393 1053.89C563.234 1043.15 545.571 1030.8 528.027 1014.91C526.308 1013.54 524.589 1012.18 522.818 1010.78C481.472 977.344 461.247 924.045 451.444 873.522C451.147 872.027 450.851 870.531 450.545 868.99C431.138 767.14 456.002 652.981 510.354 565.227C511.84 563.238 513.325 561.248 514.856 559.198C518.619 553.869 518.619 553.869 518.162 548.682C515.636 542.021 512.459 535.794 509.126 529.513C483.658 479.76 463.262 416.933 478.322 361.006C484.987 341.846 494.996 326.853 513.307 317.169C561.557 297.152 622.232 330.061 662.51 355.763Z" fill="#426142"/>
<path d="M758.699 696.714C769.234 705.438 776.82 716.093 778.405 730.005C779.016 748.68 775.545 765.986 763.47 780.615C753.917 790.412 745.011 795.113 731.453 796.516C719.643 796.339 708.839 790.827 700.004 783.169C689.279 771.153 685.193 756.585 685.552 740.797C687.918 724.431 692.392 708.775 705.55 698.018C722.977 685.913 740.641 684.008 758.699 696.714Z" fill="#F2F9F2"/>
<path d="M1502.91 1378.48C1512.66 1389.09 1516.53 1403.37 1517.14 1417.51C1515.81 1447.75 1498.02 1474.69 1476.89 1495.2C1442.39 1526.06 1400.91 1541.89 1354.79 1540.83C1347.29 1540.36 1347.29 1540.36 1343.36 1538.4C1344.46 1531.06 1346.42 1526.17 1350.48 1519.99C1361.93 1501.35 1370.58 1481.94 1377.11 1461.08C1377.62 1459.46 1378.12 1457.85 1378.64 1456.18C1381.43 1446.58 1383.03 1437.46 1383.8 1427.48C1386.47 1395.42 1386.47 1395.42 1394.21 1387.14C1404.46 1379.66 1415.84 1375.44 1427.8 1371.49C1430.64 1370.4 1433.48 1369.3 1436.31 1368.19C1459.29 1359.91 1484.12 1362.23 1502.91 1378.48Z" fill="#426142"/>
<path d="M937.425 845.438H876.487L875.666 846.356C871.913 850.558 869.909 856.037 870.064 861.669C870.197 866.469 871.892 871.095 874.892 874.845L875.243 875.284C878.53 878.571 882.413 881.2 886.684 883.03L888.646 883.871C894.573 886.411 900.954 887.721 907.402 887.721H909.879C914.936 887.721 919.952 886.811 924.687 885.035L930.928 882.695C935.152 881.111 938.771 878.239 941.274 874.486C943.629 870.952 944.886 866.8 944.886 862.553V862.239C944.886 856.259 942.511 850.524 938.282 846.295L937.425 845.438Z" fill="#F2F9F2"/>
<path d="M1160.01 692.191C1172.89 699.84 1182.04 711.302 1186.04 725.734C1189.6 745.627 1186.03 762.11 1175.6 779.206C1168.62 789.176 1161.11 793.402 1149.58 797.247C1135.53 798.631 1123.82 797.983 1112.27 789.392C1101.31 779.556 1095.41 768.675 1094.04 754.023C1093.37 730.388 1097.27 714.563 1113.54 697.092C1126.05 686.479 1145.17 685.64 1160.01 692.191Z" fill="#F2F9F2"/>
</svg>
